<svg xmlns="http://www.w3.org/2000/svg" width="1120" height="680" viewBox="0 0 1120 680">
  <rect width="1120" height="680" rx="22" fill="#eef3f8"/>
  <rect x="40" y="36" width="1040" height="608" rx="18" fill="#fff" stroke="#cad5e3"/>
  <rect x="40" y="36" width="1040" height="58" rx="18" fill="#f5f8fb"/>
  <circle cx="72" cy="65" r="7" fill="#ff6b6b"/><circle cx="94" cy="65" r="7" fill="#ffd43b"/><circle cx="116" cy="65" r="7" fill="#51cf66"/>
  <text x="150" y="72" font-family="Arial, sans-serif" font-size="21" fill="#24364b">DSM 控制面板 · 任务计划</text>
  <rect x="72" y="126" width="220" height="480" rx="12" fill="#f5f7fa"/>
  <text x="98" y="166" font-family="Arial, sans-serif" font-size="18" fill="#53657a">控制面板</text>
  <rect x="88" y="198" width="188" height="44" rx="9" fill="#dceafb"/>
  <text x="112" y="226" font-family="Arial, sans-serif" font-size="17" fill="#2165b5">任务计划</text>
  <rect x="330" y="128" width="710" height="64" rx="10" fill="#f8fafc" stroke="#dde5ef"/>
  <rect x="352" y="142" width="98" height="36" rx="8" fill="#2f7adf"/>
  <text x="377" y="166" font-family="Arial, sans-serif" font-size="16" fill="#fff">新增 ▾</text>
  <rect x="352" y="204" width="330" height="152" rx="12" fill="#fff" stroke="#bac8d8"/>
  <text x="378" y="241" font-family="Arial, sans-serif" font-size="16" fill="#34485e">计划的任务</text>
  <line x1="370" y1="260" x2="664" y2="260" stroke="#e4eaf1"/>
  <rect x="372" y="276" width="286" height="50" rx="8" fill="#e8f2ff"/>
  <text x="392" y="307" font-family="Arial, sans-serif" font-size="17" fill="#1e63b5">用户定义的脚本</text>
  <path d="M702 301 C760 301 786 301 832 301" stroke="#e74c3c" stroke-width="4" fill="none" marker-end="url(#arrow)"/>
  <rect x="844" y="260" width="168" height="82" rx="12" fill="#fff4f2" stroke="#f2b8ae"/>
  <text x="864" y="290" font-family="Arial, sans-serif" font-size="16" fill="#b23a2f">点击这里</text>
  <text x="864" y="316" font-family="Arial, sans-serif" font-size="14" fill="#6f4a46">新增用户定义脚本</text>
  <defs><marker id="arrow" markerWidth="10" markerHeight="10" refX="8" refY="3" orient="auto"><path d="M0,0 L0,6 L9,3 z" fill="#e74c3c"/></marker></defs>
  <text x="350" y="585" font-family="Arial, sans-serif" font-size="14" fill="#8391a2">示意：控制面板 → 任务计划 → 新增 → 计划的任务 → 用户定义的脚本</text>
</svg>